<?xml version="1.0" encoding="us-ascii" standalone="no"?><svg xmlns="http://www.w3.org/2000/svg" xmlns:xlink="http://www.w3.org/1999/xlink" contentStyleType="text/css" height="1454px" preserveAspectRatio="none" style="width:1737px;height:1454px;background:#FFFFFF;" version="1.1" viewBox="0 0 1737 1454" width="1737px" zoomAndPan="magnify"><defs/><g><!--class IVehicle--><g id="elem_IVehicle"><rect codeLine="3" fill="#F1F1F1" height="136.0469" id="IVehicle" rx="2.5" ry="2.5" style="stroke:#181818;stroke-width:0.5;" width="148" x="649.91" y="1311"/><ellipse cx="694.66" cy="1327" fill="#B4A7E5" rx="11" ry="11" style="stroke:#181818;stroke-width:1.0;"/><path d="M695.6131,1323.6406 L695.6131,1330.2969 L697.3319,1330.2969 Q697.9413,1330.2969 698.2069,1330.5313 Q698.4725,1330.7656 698.4725,1331.1563 Q698.4725,1331.5313 698.2069,1331.7656 Q697.9413,1332 697.3319,1332 L692.1913,1332 Q691.5819,1332 691.3163,1331.7656 Q691.0506,1331.5313 691.0506,1331.1406 Q691.0506,1330.7656 691.3163,1330.5313 Q691.5819,1330.2969 692.1913,1330.2969 L693.91,1330.2969 L693.91,1323.6406 L692.1913,1323.6406 Q691.5819,1323.6406 691.3163,1323.4063 Q691.0506,1323.1719 691.0506,1322.7813 Q691.0506,1322.4063 691.3163,1322.1719 Q691.5819,1321.9375 692.1913,1321.9375 L697.3319,1321.9375 Q697.9413,1321.9375 698.2069,1322.1719 Q698.4725,1322.4063 698.4725,1322.7813 Q698.4725,1323.1719 698.2069,1323.4063 Q697.9413,1323.6406 697.3319,1323.6406 L695.6131,1323.6406 Z " fill="#000000"/><text fill="#000000" font-family="sans-serif" font-size="14" font-style="italic" lengthAdjust="spacing" textLength="50" x="715.16" y="1332.7285">IVehicle</text><line style="stroke:#181818;stroke-width:0.5;" x1="650.91" x2="796.91" y1="1343" y2="1343"/><line style="stroke:#181818;stroke-width:0.5;" x1="650.91" x2="796.91" y1="1351" y2="1351"/><ellipse cx="660.91" cy="1365.3047" fill="#84BE84" rx="3" ry="3" style="stroke:#038048;stroke-width:1.0;"/><text fill="#000000" font-family="sans-serif" font-size="14" lengthAdjust="spacing" textLength="122" x="669.91" y="1369.5332">StartEngine() : void</text><ellipse cx="660.91" cy="1382.9141" fill="#84BE84" rx="3" ry="3" style="stroke:#038048;stroke-width:1.0;"/><text fill="#000000" font-family="sans-serif" font-size="14" lengthAdjust="spacing" textLength="121" x="669.91" y="1387.1426">StopEngine() : void</text><ellipse cx="660.91" cy="1400.5234" fill="#84BE84" rx="3" ry="3" style="stroke:#038048;stroke-width:1.0;"/><text fill="#000000" font-family="sans-serif" font-size="14" lengthAdjust="spacing" textLength="99" x="669.91" y="1404.752">AddGas() : void</text><ellipse cx="660.91" cy="1418.1328" fill="#84BE84" rx="3" ry="3" style="stroke:#038048;stroke-width:1.0;"/><text fill="#000000" font-family="sans-serif" font-size="14" lengthAdjust="spacing" textLength="115" x="669.91" y="1422.3613">NeedsGas() : bool</text><ellipse cx="660.91" cy="1435.7422" fill="#84BE84" rx="3" ry="3" style="stroke:#038048;stroke-width:1.0;"/><text fill="#000000" font-family="sans-serif" font-size="14" lengthAdjust="spacing" textLength="122" x="669.91" y="1439.9707">IsEngineOn() : bool</text></g><!--class IVehicleRepository--><g id="elem_IVehicleRepository"><rect codeLine="11" fill="#F1F1F1" height="100.8281" id="IVehicleRepository" rx="2.5" ry="2.5" style="stroke:#181818;stroke-width:0.5;" width="251" x="777.41" y="763"/><ellipse cx="839.66" cy="779" fill="#B4A7E5" rx="11" ry="11" style="stroke:#181818;stroke-width:1.0;"/><path d="M840.6131,775.6406 L840.6131,782.2969 L842.3319,782.2969 Q842.9413,782.2969 843.2069,782.5313 Q843.4725,782.7656 843.4725,783.1563 Q843.4725,783.5313 843.2069,783.7656 Q842.9413,784 842.3319,784 L837.1913,784 Q836.5819,784 836.3163,783.7656 Q836.0506,783.5313 836.0506,783.1406 Q836.0506,782.7656 836.3163,782.5313 Q836.5819,782.2969 837.1913,782.2969 L838.91,782.2969 L838.91,775.6406 L837.1913,775.6406 Q836.5819,775.6406 836.3163,775.4063 Q836.0506,775.1719 836.0506,774.7813 Q836.0506,774.4063 836.3163,774.1719 Q836.5819,773.9375 837.1913,773.9375 L842.3319,773.9375 Q842.9413,773.9375 843.2069,774.1719 Q843.4725,774.4063 843.4725,774.7813 Q843.4725,775.1719 843.2069,775.4063 Q842.9413,775.6406 842.3319,775.6406 L840.6131,775.6406 Z " fill="#000000"/><text fill="#000000" font-family="sans-serif" font-size="14" font-style="italic" lengthAdjust="spacing" textLength="118" x="860.16" y="784.7285">IVehicleRepository</text><line style="stroke:#181818;stroke-width:0.5;" x1="778.41" x2="1027.41" y1="795" y2="795"/><line style="stroke:#181818;stroke-width:0.5;" x1="778.41" x2="1027.41" y1="803" y2="803"/><ellipse cx="788.41" cy="817.3047" fill="#84BE84" rx="3" ry="3" style="stroke:#038048;stroke-width:1.0;"/><text fill="#000000" font-family="sans-serif" font-size="14" lengthAdjust="spacing" textLength="225" x="797.41" y="821.5332">GetVehicles() : ICollection&lt;Vehicle&gt;</text><ellipse cx="788.41" cy="834.9141" fill="#84BE84" rx="3" ry="3" style="stroke:#038048;stroke-width:1.0;"/><text fill="#000000" font-family="sans-serif" font-size="14" lengthAdjust="spacing" textLength="217" x="797.41" y="839.1426">AddVehicle(vehicle: Vehicle) : void</text><ellipse cx="788.41" cy="852.5234" fill="#84BE84" rx="3" ry="3" style="stroke:#038048;stroke-width:1.0;"/><text fill="#000000" font-family="sans-serif" font-size="14" lengthAdjust="spacing" textLength="145" x="797.41" y="856.752">Find(id: Guid) : Vehicle</text></g><!--class Vehicle--><g id="elem_Vehicle"><rect codeLine="18" fill="#F1F1F1" height="276.9219" id="Vehicle" rx="2.5" ry="2.5" style="stroke:#181818;stroke-width:0.5;" width="148" x="649.91" y="956"/><ellipse cx="696.66" cy="972" fill="#A9DCDF" rx="11" ry="11" style="stroke:#181818;stroke-width:1.0;"/><path d="M698.8475,973.7656 L694.7069,973.7656 L694.285,974.7969 L694.7069,974.7969 Q695.3163,974.7969 695.5819,975.0313 Q695.8475,975.2656 695.8475,975.6563 Q695.8475,976.0313 695.5819,976.2656 Q695.3163,976.5 694.7069,976.5 L692.41,976.5 Q691.8006,976.5 691.5506,976.2656 Q691.285,976.0313 691.285,975.6406 Q691.285,975.2656 691.5663,975.0313 Q691.8319,974.7813 692.4569,974.7969 L695.1288,968.1406 L694.0194,968.1406 Q693.41,968.1406 693.1444,967.9063 Q692.8788,967.6719 692.8788,967.2813 Q692.8788,966.9063 693.1444,966.6719 Q693.41,966.4375 694.0194,966.4375 L697.6913,966.4375 L701.0819,974.7969 Q701.6756,974.7969 701.8631,974.9375 Q702.2538,975.2031 702.2538,975.6563 Q702.2538,976.0313 701.9881,976.2656 Q701.7381,976.5 701.1288,976.5 L698.8319,976.5 Q698.2225,976.5 697.9569,976.2656 Q697.6913,976.0313 697.6913,975.6406 Q697.6913,975.2656 697.9569,975.0313 Q698.2225,974.7969 698.8319,974.7969 L699.2538,974.7969 L698.8475,973.7656 Z M698.1288,972.0625 L696.7694,968.6875 L695.3944,972.0625 L698.1288,972.0625 Z " fill="#000000"/><text fill="#000000" font-family="sans-serif" font-size="14" font-style="italic" lengthAdjust="spacing" textLength="46" x="717.16" y="977.7285">Vehicle</text><line style="stroke:#181818;stroke-width:0.5;" x1="650.91" x2="796.91" y1="988" y2="988"/><ellipse cx="660.91" cy="1002.3047" fill="none" rx="3" ry="3" style="stroke:#038048;stroke-width:1.0;"/><text fill="#000000" font-family="sans-serif" font-size="14" lengthAdjust="spacing" textLength="53" x="669.91" y="1006.5332">Id : Guid</text><ellipse cx="660.91" cy="1019.9141" fill="none" rx="3" ry="3" style="stroke:#038048;stroke-width:1.0;"/><text fill="#000000" font-family="sans-serif" font-size="14" lengthAdjust="spacing" textLength="59" x="669.91" y="1024.1426">Tires : int</text><ellipse cx="660.91" cy="1037.5234" fill="none" rx="3" ry="3" style="stroke:#038048;stroke-width:1.0;"/><text fill="#000000" font-family="sans-serif" font-size="14" lengthAdjust="spacing" textLength="81" x="669.91" y="1041.752">Color : string</text><ellipse cx="660.91" cy="1055.1328" fill="none" rx="3" ry="3" style="stroke:#038048;stroke-width:1.0;"/><text fill="#000000" font-family="sans-serif" font-size="14" lengthAdjust="spacing" textLength="85" x="669.91" y="1059.3613">Brand : string</text><ellipse cx="660.91" cy="1072.7422" fill="none" rx="3" ry="3" style="stroke:#038048;stroke-width:1.0;"/><text fill="#000000" font-family="sans-serif" font-size="14" lengthAdjust="spacing" textLength="85" x="669.91" y="1076.9707">Model : string</text><ellipse cx="660.91" cy="1090.3516" fill="none" rx="3" ry="3" style="stroke:#038048;stroke-width:1.0;"/><text fill="#000000" font-family="sans-serif" font-size="14" lengthAdjust="spacing" textLength="53" x="669.91" y="1094.5801">Gas : int</text><ellipse cx="660.91" cy="1107.9609" fill="none" rx="3" ry="3" style="stroke:#038048;stroke-width:1.0;"/><text fill="#000000" font-family="sans-serif" font-size="14" lengthAdjust="spacing" textLength="84" x="669.91" y="1112.1895">FuelLimit : int</text><rect fill="none" height="6" style="stroke:#C82930;stroke-width:1.0;" width="6" x="657.91" y="1122.5703"/><text fill="#000000" font-family="sans-serif" font-size="14" lengthAdjust="spacing" textLength="120" x="669.91" y="1129.7988">_isEngineOn : bool</text><line style="stroke:#181818;stroke-width:0.5;" x1="650.91" x2="796.91" y1="1136.875" y2="1136.875"/><ellipse cx="660.91" cy="1151.1797" fill="#84BE84" rx="3" ry="3" style="stroke:#038048;stroke-width:1.0;"/><text fill="#000000" font-family="sans-serif" font-size="14" lengthAdjust="spacing" textLength="122" x="669.91" y="1155.4082">StartEngine() : void</text><ellipse cx="660.91" cy="1168.7891" fill="#84BE84" rx="3" ry="3" style="stroke:#038048;stroke-width:1.0;"/><text fill="#000000" font-family="sans-serif" font-size="14" lengthAdjust="spacing" textLength="121" x="669.91" y="1173.0176">StopEngine() : void</text><ellipse cx="660.91" cy="1186.3984" fill="#84BE84" rx="3" ry="3" style="stroke:#038048;stroke-width:1.0;"/><text fill="#000000" font-family="sans-serif" font-size="14" lengthAdjust="spacing" textLength="99" x="669.91" y="1190.627">AddGas() : void</text><ellipse cx="660.91" cy="1204.0078" fill="#84BE84" rx="3" ry="3" style="stroke:#038048;stroke-width:1.0;"/><text fill="#000000" font-family="sans-serif" font-size="14" lengthAdjust="spacing" textLength="115" x="669.91" y="1208.2363">NeedsGas() : bool</text><ellipse cx="660.91" cy="1221.6172" fill="#84BE84" rx="3" ry="3" style="stroke:#038048;stroke-width:1.0;"/><text fill="#000000" font-family="sans-serif" font-size="14" lengthAdjust="spacing" textLength="122" x="669.91" y="1225.8457">IsEngineOn() : bool</text></g><!--class Creator--><g id="elem_Creator"><rect codeLine="34" fill="#F1F1F1" height="65.6094" id="Creator" rx="2.5" ry="2.5" style="stroke:#181818;stroke-width:0.5;" width="137" x="126.41" y="552.5"/><ellipse cx="167.06" cy="568.5" fill="#A9DCDF" rx="11" ry="11" style="stroke:#181818;stroke-width:1.0;"/><path d="M169.2475,570.2656 L165.1069,570.2656 L164.685,571.2969 L165.1069,571.2969 Q165.7163,571.2969 165.9819,571.5313 Q166.2475,571.7656 166.2475,572.1563 Q166.2475,572.5313 165.9819,572.7656 Q165.7163,573 165.1069,573 L162.81,573 Q162.2006,573 161.9506,572.7656 Q161.685,572.5313 161.685,572.1406 Q161.685,571.7656 161.9663,571.5313 Q162.2319,571.2813 162.8569,571.2969 L165.5288,564.6406 L164.4194,564.6406 Q163.81,564.6406 163.5444,564.4063 Q163.2788,564.1719 163.2788,563.7813 Q163.2788,563.4063 163.5444,563.1719 Q163.81,562.9375 164.4194,562.9375 L168.0913,562.9375 L171.4819,571.2969 Q172.0756,571.2969 172.2631,571.4375 Q172.6538,571.7031 172.6538,572.1563 Q172.6538,572.5313 172.3881,572.7656 Q172.1381,573 171.5288,573 L169.2319,573 Q168.6225,573 168.3569,572.7656 Q168.0913,572.5313 168.0913,572.1406 Q168.0913,571.7656 168.3569,571.5313 Q168.6225,571.2969 169.2319,571.2969 L169.6538,571.2969 L169.2475,570.2656 Z M168.5288,568.5625 L167.1694,565.1875 L165.7944,568.5625 L168.5288,568.5625 Z " fill="#000000"/><text fill="#000000" font-family="sans-serif" font-size="14" font-style="italic" lengthAdjust="spacing" textLength="48" x="186.76" y="574.2285">Creator</text><line style="stroke:#181818;stroke-width:0.5;" x1="127.41" x2="262.41" y1="584.5" y2="584.5"/><line style="stroke:#181818;stroke-width:0.5;" x1="127.41" x2="262.41" y1="592.5" y2="592.5"/><ellipse cx="137.41" cy="606.8047" fill="#84BE84" rx="3" ry="3" style="stroke:#038048;stroke-width:1.0;"/><text fill="#000000" font-family="sans-serif" font-size="14" font-style="italic" lengthAdjust="spacing" textLength="111" x="146.41" y="611.0332">Create() : Vehicle</text></g><!--class Car--><g id="elem_Car"><rect codeLine="39" fill="#F1F1F1" height="83.2188" id="Car" rx="2.5" ry="2.5" style="stroke:#181818;stroke-width:0.5;" width="142" x="315.91" y="772"/><ellipse cx="371.16" cy="788" fill="#ADD1B2" rx="11" ry="11" style="stroke:#181818;stroke-width:1.0;"/><path d="M373.9256,783.875 Q374.0819,783.6563 374.2694,783.5469 Q374.4569,783.4375 374.6756,783.4375 Q375.0506,783.4375 375.285,783.7031 Q375.5194,783.9531 375.5194,784.5625 L375.5194,786.0156 Q375.5194,786.625 375.285,786.8906 Q375.0506,787.1563 374.6756,787.1563 Q374.3319,787.1563 374.1288,786.9531 Q373.9256,786.7656 373.8163,786.25 Q373.7694,785.8906 373.5819,785.7031 Q373.2538,785.3281 372.6444,785.1094 Q372.035,784.8906 371.41,784.8906 Q370.6444,784.8906 370.0038,785.2188 Q369.3788,785.5469 368.8788,786.2969 Q368.3944,787.0469 368.3944,788.0781 L368.3944,789.1719 Q368.3944,790.4063 369.285,791.2344 Q370.1756,792.0469 371.7694,792.0469 Q372.7069,792.0469 373.3631,791.7969 Q373.7538,791.6406 374.1756,791.2031 Q374.4413,790.9375 374.5819,790.8594 Q374.7381,790.7813 374.9413,790.7813 Q375.2694,790.7813 375.5194,791.0469 Q375.785,791.2969 375.785,791.6406 Q375.785,791.9844 375.4413,792.3906 Q374.9413,792.9688 374.1444,793.2969 Q373.0663,793.75 371.7694,793.75 Q370.2538,793.75 369.0506,793.125 Q368.0663,792.625 367.3788,791.5625 Q366.6913,790.4844 366.6913,789.2031 L366.6913,788.0469 Q366.6913,786.7188 367.3006,785.5781 Q367.9256,784.4219 369.0194,783.8125 Q370.1131,783.1875 371.3475,783.1875 Q372.0819,783.1875 372.7225,783.3594 Q373.3788,783.5156 373.9256,783.875 Z " fill="#000000"/><text fill="#000000" font-family="sans-serif" font-size="14" lengthAdjust="spacing" textLength="23" x="391.66" y="793.7285">Car</text><line style="stroke:#181818;stroke-width:0.5;" x1="316.91" x2="456.91" y1="804" y2="804"/><ellipse cx="326.91" cy="818.3047" fill="none" rx="3" ry="3" style="stroke:#038048;stroke-width:1.0;"/><text fill="#000000" font-family="sans-serif" font-size="14" lengthAdjust="spacing" textLength="83" x="335.91" y="822.5332">Tires : int = 4</text><ellipse cx="326.91" cy="835.9141" fill="none" rx="3" ry="3" style="stroke:#038048;stroke-width:1.0;"/><text fill="#000000" font-family="sans-serif" font-size="14" lengthAdjust="spacing" textLength="116" x="335.91" y="840.1426">FuelLimit : int = 10</text><line style="stroke:#181818;stroke-width:0.5;" x1="316.91" x2="456.91" y1="847.2188" y2="847.2188"/></g><!--class Motocycle--><g id="elem_Motocycle"><rect codeLine="44" fill="#F1F1F1" height="83.2188" id="Motocycle" rx="2.5" ry="2.5" style="stroke:#181818;stroke-width:0.5;" width="134" x="1509.91" y="772"/><ellipse cx="1542.46" cy="788" fill="#ADD1B2" rx="11" ry="11" style="stroke:#181818;stroke-width:1.0;"/><path d="M1545.2256,783.875 Q1545.3819,783.6563 1545.5694,783.5469 Q1545.7569,783.4375 1545.9756,783.4375 Q1546.3506,783.4375 1546.585,783.7031 Q1546.8194,783.9531 1546.8194,784.5625 L1546.8194,786.0156 Q1546.8194,786.625 1546.585,786.8906 Q1546.3506,787.1563 1545.9756,787.1563 Q1545.6319,787.1563 1545.4287,786.9531 Q1545.2256,786.7656 1545.1162,786.25 Q1545.0694,785.8906 1544.8819,785.7031 Q1544.5537,785.3281 1543.9444,785.1094 Q1543.335,784.8906 1542.71,784.8906 Q1541.9444,784.8906 1541.3037,785.2188 Q1540.6787,785.5469 1540.1787,786.2969 Q1539.6944,787.0469 1539.6944,788.0781 L1539.6944,789.1719 Q1539.6944,790.4063 1540.585,791.2344 Q1541.4756,792.0469 1543.0694,792.0469 Q1544.0069,792.0469 1544.6631,791.7969 Q1545.0537,791.6406 1545.4756,791.2031 Q1545.7412,790.9375 1545.8819,790.8594 Q1546.0381,790.7813 1546.2412,790.7813 Q1546.5694,790.7813 1546.8194,791.0469 Q1547.085,791.2969 1547.085,791.6406 Q1547.085,791.9844 1546.7412,792.3906 Q1546.2412,792.9688 1545.4444,793.2969 Q1544.3662,793.75 1543.0694,793.75 Q1541.5537,793.75 1540.3506,793.125 Q1539.3662,792.625 1538.6787,791.5625 Q1537.9912,790.4844 1537.9912,789.2031 L1537.9912,788.0469 Q1537.9912,786.7188 1538.6006,785.5781 Q1539.2256,784.4219 1540.3194,783.8125 Q1541.4131,783.1875 1542.6475,783.1875 Q1543.3819,783.1875 1544.0225,783.3594 Q1544.6787,783.5156 1545.2256,783.875 Z " fill="#000000"/><text fill="#000000" font-family="sans-serif" font-size="14" lengthAdjust="spacing" textLength="63" x="1560.36" y="793.7285">Motocycle</text><line style="stroke:#181818;stroke-width:0.5;" x1="1510.91" x2="1642.91" y1="804" y2="804"/><ellipse cx="1520.91" cy="818.3047" fill="none" rx="3" ry="3" style="stroke:#038048;stroke-width:1.0;"/><text fill="#000000" font-family="sans-serif" font-size="14" lengthAdjust="spacing" textLength="83" x="1529.91" y="822.5332">Tires : int = 2</text><ellipse cx="1520.91" cy="835.9141" fill="none" rx="3" ry="3" style="stroke:#038048;stroke-width:1.0;"/><text fill="#000000" font-family="sans-serif" font-size="14" lengthAdjust="spacing" textLength="108" x="1529.91" y="840.1426">FuelLimit : int = 5</text><line style="stroke:#181818;stroke-width:0.5;" x1="1510.91" x2="1642.91" y1="847.2188" y2="847.2188"/></g><!--class FordMustangCreator--><g id="elem_FordMustangCreator"><rect codeLine="50" fill="#F1F1F1" height="65.6094" id="FordMustangCreator" rx="2.5" ry="2.5" style="stroke:#181818;stroke-width:0.5;" width="164" x="425.91" y="299.5"/><ellipse cx="440.91" cy="315.5" fill="#ADD1B2" rx="11" ry="11" style="stroke:#181818;stroke-width:1.0;"/><path d="M443.6756,311.375 Q443.8319,311.1563 444.0194,311.0469 Q444.2069,310.9375 444.4256,310.9375 Q444.8006,310.9375 445.035,311.2031 Q445.2694,311.4531 445.2694,312.0625 L445.2694,313.5156 Q445.2694,314.125 445.035,314.3906 Q444.8006,314.6563 444.4256,314.6563 Q444.0819,314.6563 443.8788,314.4531 Q443.6756,314.2656 443.5663,313.75 Q443.5194,313.3906 443.3319,313.2031 Q443.0038,312.8281 442.3944,312.6094 Q441.785,312.3906 441.16,312.3906 Q440.3944,312.3906 439.7538,312.7188 Q439.1288,313.0469 438.6288,313.7969 Q438.1444,314.5469 438.1444,315.5781 L438.1444,316.6719 Q438.1444,317.9063 439.035,318.7344 Q439.9256,319.5469 441.5194,319.5469 Q442.4569,319.5469 443.1131,319.2969 Q443.5038,319.1406 443.9256,318.7031 Q444.1913,318.4375 444.3319,318.3594 Q444.4881,318.2813 444.6913,318.2813 Q445.0194,318.2813 445.2694,318.5469 Q445.535,318.7969 445.535,319.1406 Q445.535,319.4844 445.1913,319.8906 Q444.6913,320.4688 443.8944,320.7969 Q442.8163,321.25 441.5194,321.25 Q440.0038,321.25 438.8006,320.625 Q437.8163,320.125 437.1288,319.0625 Q436.4413,317.9844 436.4413,316.7031 L436.4413,315.5469 Q436.4413,314.2188 437.0506,313.0781 Q437.6756,311.9219 438.7694,311.3125 Q439.8631,310.6875 441.0975,310.6875 Q441.8319,310.6875 442.4725,310.8594 Q443.1288,311.0156 443.6756,311.375 Z " fill="#000000"/><text fill="#000000" font-family="sans-serif" font-size="14" lengthAdjust="spacing" textLength="132" x="454.91" y="321.2285">FordMustangCreator</text><line style="stroke:#181818;stroke-width:0.5;" x1="426.91" x2="588.91" y1="331.5" y2="331.5"/><line style="stroke:#181818;stroke-width:0.5;" x1="426.91" x2="588.91" y1="339.5" y2="339.5"/><ellipse cx="436.91" cy="353.8047" fill="#84BE84" rx="3" ry="3" style="stroke:#038048;stroke-width:1.0;"/><text fill="#000000" font-family="sans-serif" font-size="14" lengthAdjust="spacing" textLength="111" x="445.91" y="358.0332">Create() : Vehicle</text></g><!--class FordExplorerCreator--><g id="elem_FordExplorerCreator"><rect codeLine="54" fill="#F1F1F1" height="65.6094" id="FordExplorerCreator" rx="2.5" ry="2.5" style="stroke:#181818;stroke-width:0.5;" width="162" x="228.91" y="299.5"/><ellipse cx="243.91" cy="315.5" fill="#ADD1B2" rx="11" ry="11" style="stroke:#181818;stroke-width:1.0;"/><path d="M246.6756,311.375 Q246.8319,311.1563 247.0194,311.0469 Q247.2069,310.9375 247.4256,310.9375 Q247.8006,310.9375 248.035,311.2031 Q248.2694,311.4531 248.2694,312.0625 L248.2694,313.5156 Q248.2694,314.125 248.035,314.3906 Q247.8006,314.6563 247.4256,314.6563 Q247.0819,314.6563 246.8788,314.4531 Q246.6756,314.2656 246.5663,313.75 Q246.5194,313.3906 246.3319,313.2031 Q246.0038,312.8281 245.3944,312.6094 Q244.785,312.3906 244.16,312.3906 Q243.3944,312.3906 242.7538,312.7188 Q242.1288,313.0469 241.6288,313.7969 Q241.1444,314.5469 241.1444,315.5781 L241.1444,316.6719 Q241.1444,317.9063 242.035,318.7344 Q242.9256,319.5469 244.5194,319.5469 Q245.4569,319.5469 246.1131,319.2969 Q246.5038,319.1406 246.9256,318.7031 Q247.1913,318.4375 247.3319,318.3594 Q247.4881,318.2813 247.6913,318.2813 Q248.0194,318.2813 248.2694,318.5469 Q248.535,318.7969 248.535,319.1406 Q248.535,319.4844 248.1913,319.8906 Q247.6913,320.4688 246.8944,320.7969 Q245.8163,321.25 244.5194,321.25 Q243.0038,321.25 241.8006,320.625 Q240.8163,320.125 240.1288,319.0625 Q239.4413,317.9844 239.4413,316.7031 L239.4413,315.5469 Q239.4413,314.2188 240.0506,313.0781 Q240.6756,311.9219 241.7694,311.3125 Q242.8631,310.6875 244.0975,310.6875 Q244.8319,310.6875 245.4725,310.8594 Q246.1288,311.0156 246.6756,311.375 Z " fill="#000000"/><text fill="#000000" font-family="sans-serif" font-size="14" lengthAdjust="spacing" textLength="130" x="257.91" y="321.2285">FordExplorerCreator</text><line style="stroke:#181818;stroke-width:0.5;" x1="229.91" x2="389.91" y1="331.5" y2="331.5"/><line style="stroke:#181818;stroke-width:0.5;" x1="229.91" x2="389.91" y1="339.5" y2="339.5"/><ellipse cx="239.91" cy="353.8047" fill="#84BE84" rx="3" ry="3" style="stroke:#038048;stroke-width:1.0;"/><text fill="#000000" font-family="sans-serif" font-size="14" lengthAdjust="spacing" textLength="111" x="248.91" y="358.0332">Create() : Vehicle</text></g><!--class CarBuilder--><g id="elem_CarBuilder"><rect codeLine="59" fill="#F1F1F1" height="171.2656" id="CarBuilder" rx="2.5" ry="2.5" style="stroke:#181818;stroke-width:0.5;" width="255" x="336.41" y="500"/><ellipse cx="426.16" cy="516" fill="#ADD1B2" rx="11" ry="11" style="stroke:#181818;stroke-width:1.0;"/><path d="M428.9256,511.875 Q429.0819,511.6563 429.2694,511.5469 Q429.4569,511.4375 429.6756,511.4375 Q430.0506,511.4375 430.285,511.7031 Q430.5194,511.9531 430.5194,512.5625 L430.5194,514.0156 Q430.5194,514.625 430.285,514.8906 Q430.0506,515.1563 429.6756,515.1563 Q429.3319,515.1563 429.1288,514.9531 Q428.9256,514.7656 428.8163,514.25 Q428.7694,513.8906 428.5819,513.7031 Q428.2538,513.3281 427.6444,513.1094 Q427.035,512.8906 426.41,512.8906 Q425.6444,512.8906 425.0038,513.2188 Q424.3788,513.5469 423.8788,514.2969 Q423.3944,515.0469 423.3944,516.0781 L423.3944,517.1719 Q423.3944,518.4063 424.285,519.2344 Q425.1756,520.0469 426.7694,520.0469 Q427.7069,520.0469 428.3631,519.7969 Q428.7538,519.6406 429.1756,519.2031 Q429.4413,518.9375 429.5819,518.8594 Q429.7381,518.7813 429.9413,518.7813 Q430.2694,518.7813 430.5194,519.0469 Q430.785,519.2969 430.785,519.6406 Q430.785,519.9844 430.4413,520.3906 Q429.9413,520.9688 429.1444,521.2969 Q428.0663,521.75 426.7694,521.75 Q425.2538,521.75 424.0506,521.125 Q423.0663,520.625 422.3788,519.5625 Q421.6913,518.4844 421.6913,517.2031 L421.6913,516.0469 Q421.6913,514.7188 422.3006,513.5781 Q422.9256,512.4219 424.0194,511.8125 Q425.1131,511.1875 426.3475,511.1875 Q427.0819,511.1875 427.7225,511.3594 Q428.3788,511.5156 428.9256,511.875 Z " fill="#000000"/><text fill="#000000" font-family="sans-serif" font-size="14" lengthAdjust="spacing" textLength="67" x="446.66" y="521.7285">CarBuilder</text><line style="stroke:#181818;stroke-width:0.5;" x1="337.41" x2="590.41" y1="532" y2="532"/><rect fill="none" height="6" style="stroke:#C82930;stroke-width:1.0;" width="6" x="344.41" y="543.3047"/><text fill="#000000" font-family="sans-serif" font-size="14" lengthAdjust="spacing" textLength="140" x="356.41" y="550.5332">brand : string = "Ford"</text><rect fill="none" height="6" style="stroke:#C82930;stroke-width:1.0;" width="6" x="344.41" y="560.9141"/><text fill="#000000" font-family="sans-serif" font-size="14" lengthAdjust="spacing" textLength="165" x="356.41" y="568.1426">model : string = "Mustang"</text><rect fill="none" height="6" style="stroke:#C82930;stroke-width:1.0;" width="6" x="344.41" y="578.5234"/><text fill="#000000" font-family="sans-serif" font-size="14" lengthAdjust="spacing" textLength="130" x="356.41" y="585.752">color : string = "Red"</text><line style="stroke:#181818;stroke-width:0.5;" x1="337.41" x2="590.41" y1="592.8281" y2="592.8281"/><ellipse cx="347.41" cy="607.1328" fill="#84BE84" rx="3" ry="3" style="stroke:#038048;stroke-width:1.0;"/><text fill="#000000" font-family="sans-serif" font-size="14" lengthAdjust="spacing" textLength="228" x="356.41" y="611.3613">SetBrand(brand: string) : CarBuilder</text><ellipse cx="347.41" cy="624.7422" fill="#84BE84" rx="3" ry="3" style="stroke:#038048;stroke-width:1.0;"/><text fill="#000000" font-family="sans-serif" font-size="14" lengthAdjust="spacing" textLength="229" x="356.41" y="628.9707">SetModel(model: string) : CarBuilder</text><ellipse cx="347.41" cy="642.3516" fill="#84BE84" rx="3" ry="3" style="stroke:#038048;stroke-width:1.0;"/><text fill="#000000" font-family="sans-serif" font-size="14" lengthAdjust="spacing" textLength="218" x="356.41" y="646.5801">SetColor(color: string) : CarBuilder</text><ellipse cx="347.41" cy="659.9609" fill="#84BE84" rx="3" ry="3" style="stroke:#038048;stroke-width:1.0;"/><text fill="#000000" font-family="sans-serif" font-size="14" lengthAdjust="spacing" textLength="76" x="356.41" y="664.1895">Build() : Car</text></g><!--class VehicleCollection--><g id="elem_VehicleCollection"><rect codeLine="70" fill="#F1F1F1" height="129.1406" id="VehicleCollection" rx="2.5" ry="2.5" style="stroke:#181818;stroke-width:0.5;" width="218" x="1063.91" y="749"/><ellipse cx="1114.66" cy="770.3516" fill="#ADD1B2" rx="11" ry="11" style="stroke:#181818;stroke-width:1.0;"/><path d="M1117.4256,766.2266 Q1117.5819,766.0078 1117.7694,765.8984 Q1117.9569,765.7891 1118.1756,765.7891 Q1118.5506,765.7891 1118.785,766.0547 Q1119.0194,766.3047 1119.0194,766.9141 L1119.0194,768.3672 Q1119.0194,768.9766 1118.785,769.2422 Q1118.5506,769.5078 1118.1756,769.5078 Q1117.8319,769.5078 1117.6287,769.3047 Q1117.4256,769.1172 1117.3162,768.6016 Q1117.2694,768.2422 1117.0819,768.0547 Q1116.7537,767.6797 1116.1444,767.4609 Q1115.535,767.2422 1114.91,767.2422 Q1114.1444,767.2422 1113.5037,767.5703 Q1112.8787,767.8984 1112.3787,768.6484 Q1111.8944,769.3984 1111.8944,770.4297 L1111.8944,771.5234 Q1111.8944,772.7578 1112.785,773.5859 Q1113.6756,774.3984 1115.2694,774.3984 Q1116.2069,774.3984 1116.8631,774.1484 Q1117.2537,773.9922 1117.6756,773.5547 Q1117.9412,773.2891 1118.0819,773.2109 Q1118.2381,773.1328 1118.4412,773.1328 Q1118.7694,773.1328 1119.0194,773.3984 Q1119.285,773.6484 1119.285,773.9922 Q1119.285,774.3359 1118.9412,774.7422 Q1118.4412,775.3203 1117.6444,775.6484 Q1116.5662,776.1016 1115.2694,776.1016 Q1113.7537,776.1016 1112.5506,775.4766 Q1111.5662,774.9766 1110.8787,773.9141 Q1110.1912,772.8359 1110.1912,771.5547 L1110.1912,770.3984 Q1110.1912,769.0703 1110.8006,767.9297 Q1111.4256,766.7734 1112.5194,766.1641 Q1113.6131,765.5391 1114.8475,765.5391 Q1115.5819,765.5391 1116.2225,765.7109 Q1116.8787,765.8672 1117.4256,766.2266 Z " fill="#000000"/><text fill="#000000" font-family="sans-serif" font-size="12" font-style="italic" lengthAdjust="spacing" textLength="66" x="1156.16" y="766.457">&#171;Singleton&#187;</text><text fill="#000000" font-family="sans-serif" font-size="14" lengthAdjust="spacing" textLength="108" x="1135.16" y="783.627">VehicleCollection</text><line style="stroke:#181818;stroke-width:0.5;" x1="1064.91" x2="1280.91" y1="791.7031" y2="791.7031"/><rect fill="none" height="6" style="stroke:#C82930;stroke-width:1.0;" width="6" x="1071.91" y="803.0078"/><text fill="#000000" font-family="sans-serif" font-size="14" lengthAdjust="spacing" text-decoration="underline" textLength="181" x="1083.91" y="810.2363">_instance : VehicleCollection</text><ellipse cx="1074.91" cy="823.6172" fill="none" rx="3" ry="3" style="stroke:#038048;stroke-width:1.0;"/><text fill="#000000" font-family="sans-serif" font-size="14" lengthAdjust="spacing" text-decoration="underline" textLength="173" x="1083.91" y="827.8457">Instance : VehicleCollection</text><ellipse cx="1074.91" cy="841.2266" fill="none" rx="3" ry="3" style="stroke:#038048;stroke-width:1.0;"/><text fill="#000000" font-family="sans-serif" font-size="14" lengthAdjust="spacing" textLength="192" x="1083.91" y="845.4551">Vehicles : ICollection&lt;Vehicle&gt;</text><line style="stroke:#181818;stroke-width:0.5;" x1="1064.91" x2="1280.91" y1="852.5313" y2="852.5313"/><rect fill="#F24D5C" height="6" style="stroke:#C82930;stroke-width:1.0;" width="6" x="1071.91" y="863.8359"/><text fill="#000000" font-family="sans-serif" font-size="14" lengthAdjust="spacing" textLength="118" x="1083.91" y="871.0645">VehicleCollection()</text></g><!--class MyVehiclesRepository--><g id="elem_MyVehiclesRepository"><rect codeLine="78" fill="#F1F1F1" height="100.8281" id="MyVehiclesRepository" rx="2.5" ry="2.5" style="stroke:#181818;stroke-width:0.5;" width="251" x="1263.41" y="535"/><ellipse cx="1315.16" cy="551" fill="#ADD1B2" rx="11" ry="11" style="stroke:#181818;stroke-width:1.0;"/><path d="M1317.9256,546.875 Q1318.0819,546.6563 1318.2694,546.5469 Q1318.4569,546.4375 1318.6756,546.4375 Q1319.0506,546.4375 1319.285,546.7031 Q1319.5194,546.9531 1319.5194,547.5625 L1319.5194,549.0156 Q1319.5194,549.625 1319.285,549.8906 Q1319.0506,550.1563 1318.6756,550.1563 Q1318.3319,550.1563 1318.1287,549.9531 Q1317.9256,549.7656 1317.8162,549.25 Q1317.7694,548.8906 1317.5819,548.7031 Q1317.2537,548.3281 1316.6444,548.1094 Q1316.035,547.8906 1315.41,547.8906 Q1314.6444,547.8906 1314.0037,548.2188 Q1313.3787,548.5469 1312.8787,549.2969 Q1312.3944,550.0469 1312.3944,551.0781 L1312.3944,552.1719 Q1312.3944,553.4063 1313.285,554.2344 Q1314.1756,555.0469 1315.7694,555.0469 Q1316.7069,555.0469 1317.3631,554.7969 Q1317.7537,554.6406 1318.1756,554.2031 Q1318.4412,553.9375 1318.5819,553.8594 Q1318.7381,553.7813 1318.9412,553.7813 Q1319.2694,553.7813 1319.5194,554.0469 Q1319.785,554.2969 1319.785,554.6406 Q1319.785,554.9844 1319.4412,555.3906 Q1318.9412,555.9688 1318.1444,556.2969 Q1317.0662,556.75 1315.7694,556.75 Q1314.2537,556.75 1313.0506,556.125 Q1312.0662,555.625 1311.3787,554.5625 Q1310.6912,553.4844 1310.6912,552.2031 L1310.6912,551.0469 Q1310.6912,549.7188 1311.3006,548.5781 Q1311.9256,547.4219 1313.0194,546.8125 Q1314.1131,546.1875 1315.3475,546.1875 Q1316.0819,546.1875 1316.7225,546.3594 Q1317.3787,546.5156 1317.9256,546.875 Z " fill="#000000"/><text fill="#000000" font-family="sans-serif" font-size="14" lengthAdjust="spacing" textLength="139" x="1335.66" y="556.7285">MyVehiclesRepository</text><line style="stroke:#181818;stroke-width:0.5;" x1="1264.41" x2="1513.41" y1="567" y2="567"/><line style="stroke:#181818;stroke-width:0.5;" x1="1264.41" x2="1513.41" y1="575" y2="575"/><ellipse cx="1274.41" cy="589.3047" fill="#84BE84" rx="3" ry="3" style="stroke:#038048;stroke-width:1.0;"/><text fill="#000000" font-family="sans-serif" font-size="14" lengthAdjust="spacing" textLength="225" x="1283.41" y="593.5332">GetVehicles() : ICollection&lt;Vehicle&gt;</text><ellipse cx="1274.41" cy="606.9141" fill="#84BE84" rx="3" ry="3" style="stroke:#038048;stroke-width:1.0;"/><text fill="#000000" font-family="sans-serif" font-size="14" lengthAdjust="spacing" textLength="217" x="1283.41" y="611.1426">AddVehicle(vehicle: Vehicle) : void</text><ellipse cx="1274.41" cy="624.5234" fill="#84BE84" rx="3" ry="3" style="stroke:#038048;stroke-width:1.0;"/><text fill="#000000" font-family="sans-serif" font-size="14" lengthAdjust="spacing" textLength="145" x="1283.41" y="628.752">Find(id: Guid) : Vehicle</text></g><!--class DBVehicleRepository--><g id="elem_DBVehicleRepository"><rect codeLine="84" fill="#F1F1F1" height="100.8281" id="DBVehicleRepository" rx="2.5" ry="2.5" style="stroke:#181818;stroke-width:0.5;" width="251" x="977.41" y="535"/><ellipse cx="1032.16" cy="551" fill="#ADD1B2" rx="11" ry="11" style="stroke:#181818;stroke-width:1.0;"/><path d="M1034.9256,546.875 Q1035.0819,546.6563 1035.2694,546.5469 Q1035.4569,546.4375 1035.6756,546.4375 Q1036.0506,546.4375 1036.285,546.7031 Q1036.5194,546.9531 1036.5194,547.5625 L1036.5194,549.0156 Q1036.5194,549.625 1036.285,549.8906 Q1036.0506,550.1563 1035.6756,550.1563 Q1035.3319,550.1563 1035.1288,549.9531 Q1034.9256,549.7656 1034.8163,549.25 Q1034.7694,548.8906 1034.5819,548.7031 Q1034.2538,548.3281 1033.6444,548.1094 Q1033.035,547.8906 1032.41,547.8906 Q1031.6444,547.8906 1031.0038,548.2188 Q1030.3788,548.5469 1029.8788,549.2969 Q1029.3944,550.0469 1029.3944,551.0781 L1029.3944,552.1719 Q1029.3944,553.4063 1030.285,554.2344 Q1031.1756,555.0469 1032.7694,555.0469 Q1033.7069,555.0469 1034.3631,554.7969 Q1034.7538,554.6406 1035.1756,554.2031 Q1035.4413,553.9375 1035.5819,553.8594 Q1035.7381,553.7813 1035.9413,553.7813 Q1036.2694,553.7813 1036.5194,554.0469 Q1036.785,554.2969 1036.785,554.6406 Q1036.785,554.9844 1036.4413,555.3906 Q1035.9413,555.9688 1035.1444,556.2969 Q1034.0663,556.75 1032.7694,556.75 Q1031.2538,556.75 1030.0506,556.125 Q1029.0663,555.625 1028.3788,554.5625 Q1027.6913,553.4844 1027.6913,552.2031 L1027.6913,551.0469 Q1027.6913,549.7188 1028.3006,548.5781 Q1028.9256,547.4219 1030.0194,546.8125 Q1031.1131,546.1875 1032.3475,546.1875 Q1033.0819,546.1875 1033.7225,546.3594 Q1034.3788,546.5156 1034.9256,546.875 Z " fill="#000000"/><text fill="#000000" font-family="sans-serif" font-size="14" lengthAdjust="spacing" textLength="133" x="1052.66" y="556.7285">DBVehicleRepository</text><line style="stroke:#181818;stroke-width:0.5;" x1="978.41" x2="1227.41" y1="567" y2="567"/><line style="stroke:#181818;stroke-width:0.5;" x1="978.41" x2="1227.41" y1="575" y2="575"/><ellipse cx="988.41" cy="589.3047" fill="#84BE84" rx="3" ry="3" style="stroke:#038048;stroke-width:1.0;"/><text fill="#000000" font-family="sans-serif" font-size="14" lengthAdjust="spacing" textLength="225" x="997.41" y="593.5332">GetVehicles() : ICollection&lt;Vehicle&gt;</text><ellipse cx="988.41" cy="606.9141" fill="#84BE84" rx="3" ry="3" style="stroke:#038048;stroke-width:1.0;"/><text fill="#000000" font-family="sans-serif" font-size="14" lengthAdjust="spacing" textLength="217" x="997.41" y="611.1426">AddVehicle(vehicle: Vehicle) : void</text><ellipse cx="988.41" cy="624.5234" fill="#84BE84" rx="3" ry="3" style="stroke:#038048;stroke-width:1.0;"/><text fill="#000000" font-family="sans-serif" font-size="14" lengthAdjust="spacing" textLength="145" x="997.41" y="628.752">Find(id: Guid) : Vehicle</text></g><!--class HomeController--><g id="elem_HomeController"><rect codeLine="91" fill="#F1F1F1" height="206.4844" id="HomeController" rx="2.5" ry="2.5" style="stroke:#181818;stroke-width:0.5;" width="371" x="463.41" y="7"/><ellipse cx="595.66" cy="23" fill="#ADD1B2" rx="11" ry="11" style="stroke:#181818;stroke-width:1.0;"/><path d="M598.4256,18.875 Q598.5819,18.6563 598.7694,18.5469 Q598.9569,18.4375 599.1756,18.4375 Q599.5506,18.4375 599.785,18.7031 Q600.0194,18.9531 600.0194,19.5625 L600.0194,21.0156 Q600.0194,21.625 599.785,21.8906 Q599.5506,22.1563 599.1756,22.1563 Q598.8319,22.1563 598.6288,21.9531 Q598.4256,21.7656 598.3163,21.25 Q598.2694,20.8906 598.0819,20.7031 Q597.7538,20.3281 597.1444,20.1094 Q596.535,19.8906 595.91,19.8906 Q595.1444,19.8906 594.5038,20.2188 Q593.8788,20.5469 593.3788,21.2969 Q592.8944,22.0469 592.8944,23.0781 L592.8944,24.1719 Q592.8944,25.4063 593.785,26.2344 Q594.6756,27.0469 596.2694,27.0469 Q597.2069,27.0469 597.8631,26.7969 Q598.2538,26.6406 598.6756,26.2031 Q598.9413,25.9375 599.0819,25.8594 Q599.2381,25.7813 599.4413,25.7813 Q599.7694,25.7813 600.0194,26.0469 Q600.285,26.2969 600.285,26.6406 Q600.285,26.9844 599.9413,27.3906 Q599.4413,27.9688 598.6444,28.2969 Q597.5663,28.75 596.2694,28.75 Q594.7538,28.75 593.5506,28.125 Q592.5663,27.625 591.8788,26.5625 Q591.1913,25.4844 591.1913,24.2031 L591.1913,23.0469 Q591.1913,21.7188 591.8006,20.5781 Q592.4256,19.4219 593.5194,18.8125 Q594.6131,18.1875 595.8475,18.1875 Q596.5819,18.1875 597.2225,18.3594 Q597.8788,18.5156 598.4256,18.875 Z " fill="#000000"/><text fill="#000000" font-family="sans-serif" font-size="14" lengthAdjust="spacing" textLength="98" x="616.16" y="28.7285">HomeController</text><line style="stroke:#181818;stroke-width:0.5;" x1="464.41" x2="833.41" y1="39" y2="39"/><rect fill="none" height="6" style="stroke:#C82930;stroke-width:1.0;" width="6" x="471.41" y="50.3047"/><text fill="#000000" font-family="sans-serif" font-size="14" lengthAdjust="spacing" textLength="249" x="483.41" y="57.5332">_vehicleRepository : IVehicleRepository</text><line style="stroke:#181818;stroke-width:0.5;" x1="464.41" x2="833.41" y1="64.6094" y2="64.6094"/><ellipse cx="474.41" cy="78.9141" fill="#84BE84" rx="3" ry="3" style="stroke:#038048;stroke-width:1.0;"/><text fill="#000000" font-family="sans-serif" font-size="14" lengthAdjust="spacing" textLength="345" x="483.41" y="83.1426">HomeController(vehicleRepository: IVehicleRepository)</text><ellipse cx="474.41" cy="96.5234" fill="#84BE84" rx="3" ry="3" style="stroke:#038048;stroke-width:1.0;"/><text fill="#000000" font-family="sans-serif" font-size="14" lengthAdjust="spacing" textLength="137" x="483.41" y="100.752">Index() : IActionResult</text><ellipse cx="474.41" cy="114.1328" fill="#84BE84" rx="3" ry="3" style="stroke:#038048;stroke-width:1.0;"/><text fill="#000000" font-family="sans-serif" font-size="14" lengthAdjust="spacing" textLength="183" x="483.41" y="118.3613">AddMustang() : IActionResult</text><ellipse cx="474.41" cy="131.7422" fill="#84BE84" rx="3" ry="3" style="stroke:#038048;stroke-width:1.0;"/><text fill="#000000" font-family="sans-serif" font-size="14" lengthAdjust="spacing" textLength="181" x="483.41" y="135.9707">AddExplorer() : IActionResult</text><ellipse cx="474.41" cy="149.3516" fill="#84BE84" rx="3" ry="3" style="stroke:#038048;stroke-width:1.0;"/><text fill="#000000" font-family="sans-serif" font-size="14" lengthAdjust="spacing" textLength="227" x="483.41" y="153.5801">StartEngine(id: Guid) : IActionResult</text><ellipse cx="474.41" cy="166.9609" fill="#84BE84" rx="3" ry="3" style="stroke:#038048;stroke-width:1.0;"/><text fill="#000000" font-family="sans-serif" font-size="14" lengthAdjust="spacing" textLength="226" x="483.41" y="171.1895">StopEngine(id: Guid) : IActionResult</text><ellipse cx="474.41" cy="184.5703" fill="#84BE84" rx="3" ry="3" style="stroke:#038048;stroke-width:1.0;"/><text fill="#000000" font-family="sans-serif" font-size="14" lengthAdjust="spacing" textLength="204" x="483.41" y="188.7988">AddGas(id: Guid) : IActionResult</text><ellipse cx="474.41" cy="202.1797" fill="#84BE84" rx="3" ry="3" style="stroke:#038048;stroke-width:1.0;"/><text fill="#000000" font-family="sans-serif" font-size="14" lengthAdjust="spacing" textLength="136" x="483.41" y="206.4082">Error() : IActionResult</text></g><!--class HomeViewModel--><g id="elem_HomeViewModel"><rect codeLine="104" fill="#F1F1F1" height="65.6094" id="HomeViewModel" rx="2.5" ry="2.5" style="stroke:#181818;stroke-width:0.5;" width="218" x="539.91" y="404"/><ellipse cx="593.16" cy="420" fill="#ADD1B2" rx="11" ry="11" style="stroke:#181818;stroke-width:1.0;"/><path d="M595.9256,415.875 Q596.0819,415.6563 596.2694,415.5469 Q596.4569,415.4375 596.6756,415.4375 Q597.0506,415.4375 597.285,415.7031 Q597.5194,415.9531 597.5194,416.5625 L597.5194,418.0156 Q597.5194,418.625 597.285,418.8906 Q597.0506,419.1563 596.6756,419.1563 Q596.3319,419.1563 596.1288,418.9531 Q595.9256,418.7656 595.8163,418.25 Q595.7694,417.8906 595.5819,417.7031 Q595.2538,417.3281 594.6444,417.1094 Q594.035,416.8906 593.41,416.8906 Q592.6444,416.8906 592.0038,417.2188 Q591.3788,417.5469 590.8788,418.2969 Q590.3944,419.0469 590.3944,420.0781 L590.3944,421.1719 Q590.3944,422.4063 591.285,423.2344 Q592.1756,424.0469 593.7694,424.0469 Q594.7069,424.0469 595.3631,423.7969 Q595.7538,423.6406 596.1756,423.2031 Q596.4413,422.9375 596.5819,422.8594 Q596.7381,422.7813 596.9413,422.7813 Q597.2694,422.7813 597.5194,423.0469 Q597.785,423.2969 597.785,423.6406 Q597.785,423.9844 597.4413,424.3906 Q596.9413,424.9688 596.1444,425.2969 Q595.0663,425.75 593.7694,425.75 Q592.2538,425.75 591.0506,425.125 Q590.0663,424.625 589.3788,423.5625 Q588.6913,422.4844 588.6913,421.2031 L588.6913,420.0469 Q588.6913,418.7188 589.3006,417.5781 Q589.9256,416.4219 591.0194,415.8125 Q592.1131,415.1875 593.3475,415.1875 Q594.0819,415.1875 594.7225,415.3594 Q595.3788,415.5156 595.9256,415.875 Z " fill="#000000"/><text fill="#000000" font-family="sans-serif" font-size="14" lengthAdjust="spacing" textLength="103" x="613.66" y="425.7285">HomeViewModel</text><line style="stroke:#181818;stroke-width:0.5;" x1="540.91" x2="756.91" y1="436" y2="436"/><ellipse cx="550.91" cy="450.3047" fill="none" rx="3" ry="3" style="stroke:#038048;stroke-width:1.0;"/><text fill="#000000" font-family="sans-serif" font-size="14" lengthAdjust="spacing" textLength="192" x="559.91" y="454.5332">Vehicles : ICollection&lt;Vehicle&gt;</text><line style="stroke:#181818;stroke-width:0.5;" x1="540.91" x2="756.91" y1="461.6094" y2="461.6094"/></g><!--class ErrorViewModel--><g id="elem_ErrorViewModel"><rect codeLine="108" fill="#F1F1F1" height="83.2188" id="ErrorViewModel" rx="2.5" ry="2.5" style="stroke:#181818;stroke-width:0.5;" width="163" x="851.41" y="291"/><ellipse cx="880.81" cy="307" fill="#ADD1B2" rx="11" ry="11" style="stroke:#181818;stroke-width:1.0;"/><path d="M883.5756,302.875 Q883.7319,302.6563 883.9194,302.5469 Q884.1069,302.4375 884.3256,302.4375 Q884.7006,302.4375 884.935,302.7031 Q885.1694,302.9531 885.1694,303.5625 L885.1694,305.0156 Q885.1694,305.625 884.935,305.8906 Q884.7006,306.1563 884.3256,306.1563 Q883.9819,306.1563 883.7788,305.9531 Q883.5756,305.7656 883.4663,305.25 Q883.4194,304.8906 883.2319,304.7031 Q882.9038,304.3281 882.2944,304.1094 Q881.685,303.8906 881.06,303.8906 Q880.2944,303.8906 879.6538,304.2188 Q879.0288,304.5469 878.5288,305.2969 Q878.0444,306.0469 878.0444,307.0781 L878.0444,308.1719 Q878.0444,309.4063 878.935,310.2344 Q879.8256,311.0469 881.4194,311.0469 Q882.3569,311.0469 883.0131,310.7969 Q883.4038,310.6406 883.8256,310.2031 Q884.0913,309.9375 884.2319,309.8594 Q884.3881,309.7813 884.5913,309.7813 Q884.9194,309.7813 885.1694,310.0469 Q885.435,310.2969 885.435,310.6406 Q885.435,310.9844 885.0913,311.3906 Q884.5913,311.9688 883.7944,312.2969 Q882.7163,312.75 881.4194,312.75 Q879.9038,312.75 878.7006,312.125 Q877.7163,311.625 877.0288,310.5625 Q876.3413,309.4844 876.3413,308.2031 L876.3413,307.0469 Q876.3413,305.7188 876.9506,304.5781 Q877.5756,303.4219 878.6694,302.8125 Q879.7631,302.1875 880.9975,302.1875 Q881.7319,302.1875 882.3725,302.3594 Q883.0288,302.5156 883.5756,302.875 Z " fill="#000000"/><text fill="#000000" font-family="sans-serif" font-size="14" lengthAdjust="spacing" textLength="99" x="898.01" y="312.7285">ErrorViewModel</text><line style="stroke:#181818;stroke-width:0.5;" x1="852.41" x2="1013.41" y1="323" y2="323"/><ellipse cx="862.41" cy="337.3047" fill="none" rx="3" ry="3" style="stroke:#038048;stroke-width:1.0;"/><text fill="#000000" font-family="sans-serif" font-size="14" lengthAdjust="spacing" textLength="111" x="871.41" y="341.5332">RequestId : string</text><ellipse cx="862.41" cy="354.9141" fill="none" rx="3" ry="3" style="stroke:#038048;stroke-width:1.0;"/><text fill="#000000" font-family="sans-serif" font-size="14" lengthAdjust="spacing" textLength="137" x="871.41" y="359.1426">ShowRequestId : bool</text><line style="stroke:#181818;stroke-width:0.5;" x1="852.41" x2="1013.41" y1="366.2188" y2="366.2188"/></g><!--class ServicesConfiguration--><g id="elem_ServicesConfiguration"><rect codeLine="114" fill="#F1F1F1" height="76.3125" id="ServicesConfiguration" rx="2.5" ry="2.5" style="stroke:#181818;stroke-width:0.5;" width="387" x="1122.41" y="294.5"/><ellipse cx="1242.16" cy="315.8516" fill="#ADD1B2" rx="11" ry="11" style="stroke:#181818;stroke-width:1.0;"/><path d="M1244.9256,311.7266 Q1245.0819,311.5078 1245.2694,311.3984 Q1245.4569,311.2891 1245.6756,311.2891 Q1246.0506,311.2891 1246.285,311.5547 Q1246.5194,311.8047 1246.5194,312.4141 L1246.5194,313.8672 Q1246.5194,314.4766 1246.285,314.7422 Q1246.0506,315.0078 1245.6756,315.0078 Q1245.3319,315.0078 1245.1287,314.8047 Q1244.9256,314.6172 1244.8162,314.1016 Q1244.7694,313.7422 1244.5819,313.5547 Q1244.2537,313.1797 1243.6444,312.9609 Q1243.035,312.7422 1242.41,312.7422 Q1241.6444,312.7422 1241.0037,313.0703 Q1240.3787,313.3984 1239.8787,314.1484 Q1239.3944,314.8984 1239.3944,315.9297 L1239.3944,317.0234 Q1239.3944,318.2578 1240.285,319.0859 Q1241.1756,319.8984 1242.7694,319.8984 Q1243.7069,319.8984 1244.3631,319.6484 Q1244.7537,319.4922 1245.1756,319.0547 Q1245.4412,318.7891 1245.5819,318.7109 Q1245.7381,318.6328 1245.9412,318.6328 Q1246.2694,318.6328 1246.5194,318.8984 Q1246.785,319.1484 1246.785,319.4922 Q1246.785,319.8359 1246.4412,320.2422 Q1245.9412,320.8203 1245.1444,321.1484 Q1244.0662,321.6016 1242.7694,321.6016 Q1241.2537,321.6016 1240.0506,320.9766 Q1239.0662,320.4766 1238.3787,319.4141 Q1237.6912,318.3359 1237.6912,317.0547 L1237.6912,315.8984 Q1237.6912,314.5703 1238.3006,313.4297 Q1238.9256,312.2734 1240.0194,311.6641 Q1241.1131,311.0391 1242.3475,311.0391 Q1243.0819,311.0391 1243.7225,311.2109 Q1244.3787,311.3672 1244.9256,311.7266 Z " fill="#000000"/><text fill="#000000" font-family="sans-serif" font-size="12" font-style="italic" lengthAdjust="spacing" textLength="42" x="1311.16" y="311.957">&#171;static&#187;</text><text fill="#000000" font-family="sans-serif" font-size="14" lengthAdjust="spacing" textLength="139" x="1262.66" y="329.127">ServicesConfiguration</text><line style="stroke:#181818;stroke-width:0.5;" x1="1123.41" x2="1508.41" y1="337.2031" y2="337.2031"/><line style="stroke:#181818;stroke-width:0.5;" x1="1123.41" x2="1508.41" y1="345.2031" y2="345.2031"/><ellipse cx="1133.41" cy="359.5078" fill="#84BE84" rx="3" ry="3" style="stroke:#038048;stroke-width:1.0;"/><text fill="#000000" font-family="sans-serif" font-size="14" lengthAdjust="spacing" text-decoration="underline" textLength="361" x="1142.41" y="363.7363">ConfigureRepositories(services: IServiceCollection) : void</text></g><g id="elem_GMN39"><path d="M1316.91,784 L1316.91,809.5 L1282.23,813.5 L1316.91,817.5 L1316.91,843.0547 A0,0 0 0 0 1316.91,843.0547 L1474.91,843.0547 A0,0 0 0 0 1474.91,843.0547 L1474.91,794 L1464.91,784 L1316.91,784 A0,0 0 0 0 1316.91,784 " fill="#FEFFDD" style="stroke:#181818;stroke-width:0.5;"/><path d="M1464.91,784 L1464.91,794 L1474.91,794 L1464.91,784 " fill="#FEFFDD" style="stroke:#181818;stroke-width:0.5;"/><text fill="#000000" font-family="sans-serif" font-size="13" lengthAdjust="spacing" textLength="137" x="1322.91" y="802.4951">Thread-unsafe singleton</text><text fill="#000000" font-family="sans-serif" font-size="13" lengthAdjust="spacing" textLength="106" x="1322.91" y="818.8467">implementation for</text><text fill="#000000" font-family="sans-serif" font-size="13" lengthAdjust="spacing" textLength="123" x="1322.91" y="835.1982">educational purposes</text></g><g id="elem_GMN42"><path d="M1549.41,556 L1549.41,615.0547 L1730.41,615.0547 L1730.41,566 L1720.41,556 L1549.41,556 " fill="#FEFFDD" style="stroke:#181818;stroke-width:0.5;"/><path d="M1720.41,556 L1720.41,566 L1730.41,566 L1720.41,556 " fill="#FEFFDD" style="stroke:#181818;stroke-width:1.0;"/><text fill="#000000" font-family="sans-serif" font-size="13" lengthAdjust="spacing" textLength="160" x="1555.41" y="574.4951">Placeholder implementation</text><text fill="#000000" font-family="sans-serif" font-size="13" lengthAdjust="spacing" textLength="104" x="1555.41" y="590.8467">All methods throw</text><text fill="#000000" font-family="sans-serif" font-size="13" lengthAdjust="spacing" textLength="152" x="1555.41" y="607.1982">NotImplementedException</text></g><g id="elem_GMN45"><path d="M102.91,784 L102.91,843.0547 A0,0 0 0 0 102.91,843.0547 L280.91,843.0547 A0,0 0 0 0 280.91,843.0547 L280.91,794 L270.91,784 L196.29,784 L194.48,618.88 L188.29,784 L102.91,784 A0,0 0 0 0 102.91,784 " fill="#FEFFDD" style="stroke:#181818;stroke-width:0.5;"/><path d="M270.91,784 L270.91,794 L280.91,794 L270.91,784 " fill="#FEFFDD" style="stroke:#181818;stroke-width:0.5;"/><text fill="#000000" font-family="sans-serif" font-size="13" lengthAdjust="spacing" textLength="141" x="108.91" y="802.4951">Factory Method Pattern:</text><text fill="#000000" font-family="sans-serif" font-size="13" lengthAdjust="spacing" textLength="147" x="108.91" y="818.8467">Subclasses decide which</text><text fill="#000000" font-family="sans-serif" font-size="13" lengthAdjust="spacing" textLength="157" x="108.91" y="835.1982">Vehicle class to instantiate</text></g><g id="elem_GMN48"><path d="M493.41,784 L493.41,843.0547 A0,0 0 0 0 493.41,843.0547 L670.41,843.0547 A0,0 0 0 0 670.41,843.0547 L670.41,794 L660.41,784 L571,784 L508.19,671.3 L563,784 L493.41,784 A0,0 0 0 0 493.41,784 " fill="#FEFFDD" style="stroke:#181818;stroke-width:0.5;"/><path d="M660.41,784 L660.41,794 L670.41,794 L660.41,784 " fill="#FEFFDD" style="stroke:#181818;stroke-width:0.5;"/><text fill="#000000" font-family="sans-serif" font-size="13" lengthAdjust="spacing" textLength="90" x="499.41" y="802.4951">Builder Pattern:</text><text fill="#000000" font-family="sans-serif" font-size="13" lengthAdjust="spacing" textLength="148" x="499.41" y="818.8467">Allows fluent construction</text><text fill="#000000" font-family="sans-serif" font-size="13" lengthAdjust="spacing" textLength="156" x="499.41" y="835.1982">of Car objects with defaults</text></g><!--link Vehicle to IVehicle--><g id="link_Vehicle_IVehicle"><path codeLine="121" d="M723.91,1233.03 C723.91,1260.11 723.91,1269.37 723.91,1292.83 " fill="none" id="Vehicle-to-IVehicle" style="stroke:#181818;stroke-width:1.0;stroke-dasharray:7.0,7.0;"/><polygon fill="none" points="723.91,1310.83,729.91,1292.83,717.91,1292.83,723.91,1310.83" style="stroke:#181818;stroke-width:1.0;"/><text fill="#000000" font-family="sans-serif" font-size="13" lengthAdjust="spacing" textLength="67" x="724.91" y="1277.4951">implements</text></g><!--link Car to Vehicle--><g id="link_Car_Vehicle"><path codeLine="122" d="M435.91,855.07 C492.05,901.54 570.7757,966.7204 635.7757,1020.5404 " fill="none" id="Car-to-Vehicle" style="stroke:#181818;stroke-width:1.0;"/><polygon fill="none" points="649.64,1032.02,639.6023,1015.919,631.9492,1025.1618,649.64,1032.02" style="stroke:#181818;stroke-width:1.0;"/><text fill="#000000" font-family="sans-serif" font-size="13" lengthAdjust="spacing" textLength="46" x="516.91" y="922.4951">extends</text></g><!--link Motocycle to Vehicle--><g id="link_Motocycle_Vehicle"><path codeLine="123" d="M1529.64,855.05 C1518.15,863.51 1505.52,871.75 1492.91,878 C1253.63,996.63 956.8158,1055.7951 815.7258,1079.2751 " fill="none" id="Motocycle-to-Vehicle" style="stroke:#181818;stroke-width:1.0;"/><polygon fill="none" points="797.97,1082.23,816.7108,1085.1937,814.7408,1073.3565,797.97,1082.23" style="stroke:#181818;stroke-width:1.0;"/><text fill="#000000" font-family="sans-serif" font-size="13" lengthAdjust="spacing" textLength="46" x="1414.91" y="922.4951">extends</text></g><!--link MyVehiclesRepository to IVehicleRepository--><g id="link_MyVehiclesRepository_IVehicleRepository"><path codeLine="126" d="M1310,636.21 C1289.49,648.27 1267.17,660.66 1245.91,671 C1160.12,712.74 1133.98,712.3 1045.91,749 C1035.25,753.44 1040.7182,751.0081 1029.6782,755.7881 " fill="none" id="MyVehiclesRepository-to-IVehicleRepository" style="stroke:#181818;stroke-width:1.0;stroke-dasharray:7.0,7.0;"/><polygon fill="none" points="1013.16,762.94,1032.0621,761.2942,1027.2942,750.282,1013.16,762.94" style="stroke:#181818;stroke-width:1.0;"/><text fill="#000000" font-family="sans-serif" font-size="13" lengthAdjust="spacing" textLength="67" x="1175.91" y="715.4951">implements</text></g><!--link DBVehicleRepository to IVehicleRepository--><g id="link_DBVehicleRepository_IVehicleRepository"><path codeLine="127" d="M1059.02,636.1 C1025.79,673.65 992.2705,711.5318 958.9705,749.1518 " fill="none" id="DBVehicleRepository-to-IVehicleRepository" style="stroke:#181818;stroke-width:1.0;stroke-dasharray:7.0,7.0;"/><polygon fill="none" points="947.04,762.63,963.4633,753.1286,954.4778,745.1749,947.04,762.63" style="stroke:#181818;stroke-width:1.0;"/><text fill="#000000" font-family="sans-serif" font-size="13" lengthAdjust="spacing" textLength="67" x="998.91" y="715.4951">implements</text></g><!--link FordMustangCreator to Creator--><g id="link_FordMustangCreator_Creator"><path codeLine="130" d="M466.85,365.74 C453.02,377.28 437.83,390.72 424.91,404 C398.68,430.97 400.57,445.63 371.91,470 C351.29,487.53 341.89,485.7 318.91,500 C292.26,516.58 277.9927,525.9956 254.7227,542.1956 " fill="none" id="FordMustangCreator-to-Creator" style="stroke:#181818;stroke-width:1.0;"/><polygon fill="none" points="239.95,552.48,258.1508,547.1199,251.2945,537.2714,239.95,552.48" style="stroke:#181818;stroke-width:1.0;"/><text fill="#000000" font-family="sans-serif" font-size="13" lengthAdjust="spacing" textLength="46" x="425.91" y="442.4951">extends</text></g><!--link FordExplorerCreator to Creator--><g id="link_FordExplorerCreator_Creator"><path codeLine="131" d="M272.08,365.71 C260.97,376.85 249.73,390.06 241.91,404 C215.23,451.59 205.6967,496.8889 200.6667,534.4889 " fill="none" id="FordExplorerCreator-to-Creator" style="stroke:#181818;stroke-width:1.0;"/><polygon fill="none" points="198.28,552.33,206.6137,535.2845,194.7197,533.6934,198.28,552.33" style="stroke:#181818;stroke-width:1.0;"/><text fill="#000000" font-family="sans-serif" font-size="13" lengthAdjust="spacing" textLength="46" x="242.91" y="442.4951">extends</text></g><!--link Creator to Vehicle--><g id="link_Creator_Vehicle"><path codeLine="132" d="M149.12,618.5 C111.79,647.63 61.8,694.35 39.91,749 C18.6,802.22 6,831.77 39.91,878 C113.4,978.21 482.2892,1052.1394 643.7892,1080.2994 " fill="none" id="Creator-to-Vehicle" style="stroke:#181818;stroke-width:1.0;stroke-dasharray:7.0,7.0;"/><polygon fill="#181818" points="649.7,1081.33,641.5209,1075.8435,644.7743,1080.4711,640.1467,1083.7246,649.7,1081.33" style="stroke:#181818;stroke-width:1.0;"/><text fill="#000000" font-family="sans-serif" font-size="13" lengthAdjust="spacing" textLength="43" x="40.91" y="818.9951">creates</text></g><!--link FordMustangCreator to CarBuilder--><g id="link_FordMustangCreator_CarBuilder"><path codeLine="133" d="M500.11,365.69 C497.34,377.68 494.31,391.42 491.91,404 C485.97,435.15 481.2987,463.5777 476.7087,493.8777 " fill="none" id="FordMustangCreator-to-CarBuilder" style="stroke:#181818;stroke-width:1.0;stroke-dasharray:7.0,7.0;"/><polygon fill="#181818" points="475.81,499.81,481.1129,491.5106,476.5589,494.8664,473.2031,490.3124,475.81,499.81" style="stroke:#181818;stroke-width:1.0;"/><text fill="#000000" font-family="sans-serif" font-size="13" lengthAdjust="spacing" textLength="28" x="492.91" y="442.4951">uses</text></g><!--link FordExplorerCreator to CarBuilder--><g id="link_FordExplorerCreator_CarBuilder"><path codeLine="134" d="M310.9,365.54 C313.04,394.53 319.41,437.52 337.91,470 C343.84,480.4 347.1759,485.7899 355.1059,495.2099 " fill="none" id="FordExplorerCreator-to-CarBuilder" style="stroke:#181818;stroke-width:1.0;stroke-dasharray:7.0,7.0;"/><polygon fill="#181818" points="358.97,499.8,356.234,490.3388,355.7499,495.9749,350.1138,495.4909,358.97,499.8" style="stroke:#181818;stroke-width:1.0;"/><text fill="#000000" font-family="sans-serif" font-size="13" lengthAdjust="spacing" textLength="28" x="338.91" y="442.4951">uses</text></g><!--link CarBuilder to Car--><g id="link_CarBuilder_Car"><path codeLine="135" d="M435.02,671.3 C423.28,705.74 412.2157,738.2408 402.6857,766.2008 " fill="none" id="CarBuilder-to-Car" style="stroke:#181818;stroke-width:1.0;stroke-dasharray:7.0,7.0;"/><polygon fill="#181818" points="400.75,771.88,407.4397,764.6517,402.3631,767.1474,399.8675,762.0708,400.75,771.88" style="stroke:#181818;stroke-width:1.0;"/><text fill="#000000" font-family="sans-serif" font-size="13" lengthAdjust="spacing" textLength="34" x="424.91" y="715.4951">builds</text></g><!--link MyVehiclesRepository to VehicleCollection--><g id="link_MyVehiclesRepository_VehicleCollection"><path codeLine="138" d="M1341.51,636.1 C1309.84,669.23 1272.0456,708.7825 1237.9156,744.4925 " fill="none" id="MyVehiclesRepository-to-VehicleCollection" style="stroke:#181818;stroke-width:1.0;stroke-dasharray:7.0,7.0;"/><polygon fill="#181818" points="1233.77,748.83,1242.8801,745.0875,1237.2247,745.2154,1237.0967,739.56,1233.77,748.83" style="stroke:#181818;stroke-width:1.0;"/><text fill="#000000" font-family="sans-serif" font-size="13" lengthAdjust="spacing" textLength="28" x="1275.91" y="715.4951">uses</text></g><!--reverse link VehicleCollection to Vehicle--><g id="link_VehicleCollection_Vehicle"><path codeLine="139" d="M1060.2672,884.4931 C977.1872,936.1131 872.26,1001.32 797.93,1047.51 " fill="none" id="VehicleCollection-backto-Vehicle" style="stroke:#181818;stroke-width:1.0;"/><polygon fill="none" points="1070.46,878.16,1063.2526,877.9289,1060.2672,884.4931,1067.4746,884.7241,1070.46,878.16" style="stroke:#181818;stroke-width:1.0;"/><text fill="#000000" font-family="sans-serif" font-size="13" lengthAdjust="spacing" textLength="49" x="1015.91" y="922.4951">contains</text></g><!--link HomeController to IVehicleRepository--><g id="link_HomeController_IVehicleRepository"><path codeLine="142" d="M687.93,213.16 C709.22,269.36 735.87,340.4 758.91,404 C809.42,543.42 819.13,579.32 868.91,719 C873.96,733.15 877.4483,742.8517 882.5683,756.9217 " fill="none" id="HomeController-to-IVehicleRepository" style="stroke:#181818;stroke-width:1.0;"/><polygon fill="#181818" points="884.62,762.56,885.3012,752.7347,882.9102,757.8614,877.7835,755.4704,884.62,762.56" style="stroke:#181818;stroke-width:1.0;"/><text fill="#000000" font-family="sans-serif" font-size="13" lengthAdjust="spacing" textLength="67" x="783.91" y="442.4951">depends on</text></g><!--link HomeController to FordMustangCreator--><g id="link_HomeController_FordMustangCreator"><path codeLine="143" d="M555.98,213.07 C549.04,222.86 542.56,232.9 536.91,243 C527.12,260.5 521.5907,276.022 516.8607,293.342 " fill="none" id="HomeController-to-FordMustangCreator" style="stroke:#181818;stroke-width:1.0;stroke-dasharray:7.0,7.0;"/><polygon fill="#181818" points="515.28,299.13,521.5097,291.5017,516.5972,294.3066,513.7923,289.3941,515.28,299.13" style="stroke:#181818;stroke-width:1.0;"/><text fill="#000000" font-family="sans-serif" font-size="13" lengthAdjust="spacing" textLength="67" x="537.91" y="257.4951">instantiates</text></g><!--link HomeController to FordExplorerCreator--><g id="link_HomeController_FordExplorerCreator"><path codeLine="144" d="M491.82,213.18 C443.84,244.39 399.5592,273.1878 364.4092,296.0578 " fill="none" id="HomeController-to-FordExplorerCreator" style="stroke:#181818;stroke-width:1.0;stroke-dasharray:7.0,7.0;"/><polygon fill="#181818" points="359.38,299.33,369.1052,297.7745,363.571,296.6032,364.7423,291.0689,359.38,299.33" style="stroke:#181818;stroke-width:1.0;"/><text fill="#000000" font-family="sans-serif" font-size="13" lengthAdjust="spacing" textLength="67" x="440.91" y="257.4951">instantiates</text></g><!--link HomeController to HomeViewModel--><g id="link_HomeController_HomeViewModel"><path codeLine="145" d="M648.91,213.39 C648.91,279.07 648.91,354 648.91,397.93 " fill="none" id="HomeController-to-HomeViewModel" style="stroke:#181818;stroke-width:1.0;stroke-dasharray:7.0,7.0;"/><polygon fill="#181818" points="648.91,403.93,652.91,394.93,648.91,398.93,644.91,394.93,648.91,403.93" style="stroke:#181818;stroke-width:1.0;"/><text fill="#000000" font-family="sans-serif" font-size="13" lengthAdjust="spacing" textLength="28" x="649.91" y="257.4951">uses</text></g><!--link HomeController to ErrorViewModel--><g id="link_HomeController_ErrorViewModel"><path codeLine="146" d="M785.41,213.22 C798.47,223.22 811.47,233.27 823.91,243 C843.59,258.4 860.3299,271.8683 878.9099,287.0183 " fill="none" id="HomeController-to-ErrorViewModel" style="stroke:#181818;stroke-width:1.0;stroke-dasharray:7.0,7.0;"/><polygon fill="#181818" points="883.56,290.81,879.1126,282.0225,879.6849,287.6503,874.0571,288.2226,883.56,290.81" style="stroke:#181818;stroke-width:1.0;"/><text fill="#000000" font-family="sans-serif" font-size="13" lengthAdjust="spacing" textLength="28" x="846.91" y="257.4951">uses</text></g><!--reverse link HomeViewModel to Vehicle--><g id="link_HomeViewModel_Vehicle"><path codeLine="149" d="M654.7344,482.1076 C662.1544,538.5376 676.2,647.1 687.91,749 C695.74,817.11 703.73,892.87 710.2,955.97 " fill="none" id="HomeViewModel-backto-Vehicle" style="stroke:#181818;stroke-width:1.0;"/><polygon fill="none" points="653.17,470.21,649.9863,476.6803,654.7344,482.1076,657.9181,475.6373,653.17,470.21" style="stroke:#181818;stroke-width:1.0;"/><text fill="#000000" font-family="sans-serif" font-size="13" lengthAdjust="spacing" textLength="49" x="685.91" y="715.4951">contains</text></g><!--link ServicesConfiguration to IVehicleRepository--><g id="link_ServicesConfiguration_IVehicleRepository"><path codeLine="152" d="M1122.15,364.43 C1042.1,387.74 956.75,428.55 907.91,500 C854.09,578.72 870.3672,690.8161 886.7672,757.0161 " fill="none" id="ServicesConfiguration-to-IVehicleRepository" style="stroke:#181818;stroke-width:1.0;stroke-dasharray:7.0,7.0;"/><polygon fill="#181818" points="888.21,762.84,889.9284,753.1422,887.0077,757.9867,882.1632,755.0659,888.21,762.84" style="stroke:#181818;stroke-width:1.0;"/><text fill="#000000" font-family="sans-serif" font-size="13" lengthAdjust="spacing" textLength="50" x="908.91" y="590.9951">registers</text></g><!--link ServicesConfiguration to MyVehiclesRepository--><g id="link_ServicesConfiguration_MyVehiclesRepository"><path codeLine="153" d="M1326.68,370.54 C1339.33,414.04 1358.7053,480.6285 1372.7653,528.9985 " fill="none" id="ServicesConfiguration-to-MyVehiclesRepository" style="stroke:#181818;stroke-width:1.0;stroke-dasharray:7.0,7.0;"/><polygon fill="#181818" points="1374.44,534.76,1375.7689,525.0012,1373.0444,529.9587,1368.0869,527.2342,1374.44,534.76" style="stroke:#181818;stroke-width:1.0;"/><text fill="#000000" font-family="sans-serif" font-size="13" lengthAdjust="spacing" textLength="50" x="1354.91" y="442.4951">registers</text></g><!--link DBVehicleRepository to GMN42--><g id="link_DBVehicleRepository_GMN42"><path d="M1140.5,534.71 C1169.63,499.89 1213.39,456.59 1263.41,437 C1367.28,396.32 1413.22,390.03 1514.41,437 C1567.07,461.44 1605.62,520.08 1625.25,555.92 " fill="none" id="DBVehicleRepository-GMN42" style="stroke:#181818;stroke-width:1.0;stroke-dasharray:7.0,7.0;"/></g><!--SRC=[pLTBR-Cs4BxhLn1xYOE5WhPeBqPg8EyAgBUBUBlNG9R65WkPT4agJf3DV-_m9P4oRUzjcqCIpti-3h-XpqZ158XLMO7CgF-N55-XeLKBv2qZ-FDneKgXxjYQCfYSaobvvhJs6hvDAgxg-g6K8-4dW5fwyPBpreeBQKFynGR5UvQevn6sN5B5nQklx06KqzcWnGrlMwWKvUpIAMPzGKumURP_fyG9uYBlAQidj9wIXuxMMkMiT4bdv6efbIWhHMxQKaf4hVI2IWl82BcY9ZQG_VY52f0emTQi0Clb0WKOWxArbLsBajKZsPpNq8va26GOwhw3za-weIeGva-qnpQ2_CUSw0Yh6m4b7gR7wishtwt65X2XVyDP9K113xC_1HUmx8C5I9FVoQz9Y53nyqywiFMUSyMhr-3muXY_78hncwtj7YlNa_cvL3YtZEH3jQvHN-Oz5_Myawfawn44wRu7hxkNBSuBYEzoEoFN7Mrh4Bwa0IMliFxvCfeuREc3JlR1AZVHw6cbgztfgsY4jVuHdE_71IWppHEJmTleEeSYUaipunEJxeIbkJKJa_YOfVamSHgBo09DMr2SZJ1ni0tiGIulUzlPp0FrXeqhMhsJ9yeq1iXDqtrVDyxUjZXfwYdi687bUxwJSzjJm8h5Pjl21fZEp9cVj_chJ_332TGMT7lz_o5qlAHAw1p25VS7ty0Wz2V_zBnNyJInbsp6ECHappNbUUwOazNmOZk_Cbq_WknQrRVixjuH2yyHXqn2wWzHIPhsk-24fLiE9wpkXE2fkin1VAMmCnGWWuFeXNu-JbsLViPChZttH_Yt0wcAyNvTD7mNwlp6EYEti0Ky4rRXxMB_k5jhKon0F5DyEU5Hh-Yw4wKZ3dlnUzOOcC0R3iTESSob2uCTkOX3O_qakvlUselTqAtKWe8r8AXb5qtXyVtF_9QykFWs6nvrkBUycSpqoinpL0zQU57OiSo6VNZ08EOUJwX9jeagYEvGK4kA5hxBSN_xPeaTQxhm7uOkKdlrWAcNN5o4S5Hc-yfKIcqOhDifwIIaCwOj0uapqBEf9JBUPd_BSWs7e9ybrfjBiA_WUHxsXYnMugwBcNAu53Y_sOWmy_p0WTN6IH8Sp96BBZ61ddvWQO6Y1jy3JcCaJtl5nEAGIDYDACGPnbGLnpeCtcr18fh8qkIXqoR14x2c4YTR7d5C7d_eYdLyuXeKXh-9eEj64RvAlag-D0XddNTCbYiWqWyQQcZ4CMJ5zMiBwguodykMR3k1sJ4BdZRHcR9HliGznn2VM_ogrt0px74EL5wrBTc0QZZEZse4tw4CM-dv3d0CAjWQwr7Q9LUARtHUDo7ewjbYRa9wqfYYPj4jA_kT0kUreZMG7PRQeCQVg-L-nSCnEv8pV9EEtkDJsnZVIR9gE-n2JmnkfSuVWlKdVAdtZYGxgXgiQbNYpWpG_Gy0]--></g></svg>